<?xml version="1.0" standalone="no"?>
<!DOCTYPE svg PUBLIC "-//W3C//DTD SVG 20010904//EN"
 "http://www.w3.org/TR/2001/REC-SVG-20010904/DTD/svg10.dtd">
<svg version="1.0" xmlns="http://www.w3.org/2000/svg"
 width="1024.000000pt" height="1024.000000pt" viewBox="0 0 1024.000000 1024.000000"
 preserveAspectRatio="xMidYMid meet">

<g transform="translate(0.000000,1024.000000) scale(0.100000,-0.100000)"
fill="#000000" stroke="none">
<path d="M4940 7495 c-254 -57 -465 -226 -586 -470 -57 -115 -83 -221 -91
-367 l-6 -117 -311 -3 c-424 -4 -404 10 -431 -308 -19 -229 -48 -587 -70 -855
-35 -426 -67 -798 -95 -1120 -51 -582 -90 -1056 -90 -1104 0 -58 29 -107 74
-126 27 -12 317 -14 1787 -14 1045 0 1770 3 1794 9 44 10 81 46 92 88 3 15 1
99 -6 187 -24 310 -101 1232 -116 1380 -8 83 -26 290 -40 460 -14 171 -36 438
-50 595 -13 157 -29 348 -35 425 -21 281 -25 300 -71 341 -45 40 -80 44 -379
44 l-287 0 -7 108 c-9 146 -38 258 -97 377 -85 173 -212 303 -377 388 -144 74
-204 89 -382 93 -111 3 -173 0 -220 -11z m296 -366 c171 -31 322 -167 375
-339 11 -36 23 -107 26 -157 l6 -93 -501 0 -502 0 0 88 c0 332 271 560 596
501z m-976 -1101 c0 -154 14 -197 75 -244 28 -21 51 -29 95 -32 81 -6 140 23
178 86 25 44 27 56 30 185 l4 137 499 0 499 0 0 -134 c0 -145 7 -176 48 -219
39 -42 75 -57 131 -57 61 0 97 13 135 48 53 50 66 93 66 235 l0 127 170 0 170
0 0 -52 c0 -56 20 -322 45 -603 8 -93 24 -298 35 -455 11 -157 25 -328 30
-380 6 -52 28 -333 50 -625 22 -291 42 -556 45 -587 l6 -58 -1431 0 -1430 0 0
40 c0 22 7 134 15 248 38 509 157 2043 170 2197 8 93 15 193 15 222 l0 53 175
0 175 0 0 -132z"/>
<path d="M5123 5446 c-3 -4 -4 -194 -2 -421 l4 -413 95 -4 c52 -2 97 -3 99 -1
3 2 8 107 11 231 0 31 22 3 81 -108 l64 -120 123 0 c96 0 122 3 116 13 -4 6
-27 43 -51 80 -59 92 -163 276 -163 288 0 5 45 62 100 125 55 63 100 119 100
123 0 5 -47 9 -104 10 l-104 2 -70 -98 c-39 -54 -76 -106 -84 -116 -11 -15
-12 16 -10 197 l4 214 -54 7 c-66 7 -148 3 -155 -9z"/>
<path d="M4040 5030 l0 -420 106 0 105 0 -3 150 -3 150 128 0 127 0 0 95 0 95
-125 0 -125 0 0 75 0 75 155 0 155 0 0 100 0 100 -260 0 -260 0 0 -420z"/>
<path d="M4733 5250 c-92 -14 -160 -72 -183 -159 -6 -23 -10 -44 -8 -46 8 -6
156 -12 164 -7 5 4 14 16 20 27 6 11 28 24 48 30 49 12 90 -9 94 -47 4 -34
-24 -49 -139 -72 -153 -32 -209 -82 -209 -188 0 -67 16 -104 60 -142 66 -55
177 -56 258 -1 l37 25 8 -30 8 -30 90 0 90 0 -3 248 c-3 242 -4 248 -28 292
-44 79 -170 120 -307 100z m121 -376 c23 -9 20 -60 -4 -84 -36 -36 -70 -44
-99 -22 -48 36 -33 87 29 102 46 11 55 11 74 4z"/>
<path d="M5831 5239 c-41 -12 -121 -91 -152 -150 -21 -39 -24 -58 -24 -159 0
-112 1 -117 34 -179 80 -146 231 -189 390 -110 57 28 126 100 118 122 -1 5
-33 25 -70 44 l-67 35 -40 -36 c-30 -27 -49 -36 -75 -36 -44 0 -93 42 -101 88
l-6 32 192 0 193 0 -7 73 c-11 134 -92 248 -194 277 -45 12 -145 12 -191 -1z
m141 -150 c16 -9 48 -64 48 -84 0 -3 -40 -5 -90 -5 -49 0 -90 3 -90 6 0 3 7
21 16 39 23 48 72 67 116 44z"/>
<path d="M4683 4497 l-72 -20 -3 -61 c-2 -40 -7 -61 -15 -62 -7 -1 -22 -2 -33
-3 -18 -1 -20 -8 -20 -81 l0 -80 34 0 34 0 4 -179 c3 -163 5 -182 24 -208 51
-68 128 -90 227 -62 l37 10 0 87 0 87 26 -50 c36 -69 61 -94 119 -121 85 -40
194 -28 272 32 79 60 123 196 103 321 -27 164 -107 249 -246 261 -118 9 -193
-35 -251 -148 -26 -51 -28 -63 -28 -172 l0 -116 -29 -6 c-69 -14 -66 -20 -66
129 l0 135 49 0 48 0 6 78 c2 42 3 80 0 85 -2 4 -26 7 -54 7 l-49 0 0 80 c0
93 4 91 -117 57z m528 -323 c22 -24 24 -34 24 -126 0 -97 -1 -100 -28 -124
-61 -52 -120 -16 -131 82 -8 71 5 147 29 174 26 29 76 26 106 -6z"/>
<path d="M4177 4500 c-179 -45 -260 -227 -165 -366 28 -40 91 -76 190 -108
137 -43 164 -70 118 -116 -25 -25 -100 -27 -141 -3 -16 10 -29 20 -29 23 0 3
-7 13 -15 24 -14 18 -17 17 -102 -19 -48 -20 -91 -40 -96 -44 -13 -12 50 -88
95 -115 54 -31 147 -56 213 -56 65 0 161 25 203 53 71 47 111 142 97 227 -15
87 -75 135 -232 185 -83 26 -143 64 -143 91 0 26 39 54 75 54 33 0 85 -17 85
-29 0 -3 9 -17 19 -30 l18 -23 76 18 c56 13 78 23 83 36 17 55 -45 142 -126
177 -59 25 -166 35 -223 21z"/>
<path d="M5759 4371 c-41 -13 -72 -31 -108 -65 l-33 -31 7 43 7 42 -85 0 -84
0 -7 -61 c-8 -80 -8 -380 1 -487 l6 -83 91 3 91 3 5 170 c3 111 9 178 18 192
12 21 60 53 79 53 5 0 9 -48 9 -107 0 -76 5 -118 16 -143 51 -111 135 -170
244 -170 96 0 160 25 222 88 28 29 52 59 52 65 0 7 -19 23 -42 35 -24 11 -55
29 -70 38 -26 17 -26 17 -61 -19 -29 -31 -41 -37 -76 -37 -34 0 -49 6 -72 29
-17 17 -29 40 -29 55 l0 26 183 2 182 3 -2 67 c-4 187 -118 298 -292 286 -74
-6 -138 -33 -170 -74 l-21 -27 0 57 c0 60 -4 64 -61 47z m310 -166 c30 -15 41
-33 41 -66 0 -17 -8 -19 -80 -19 -74 0 -80 1 -80 21 0 24 52 79 75 79 9 0 29
-7 44 -15z"/>
</g>
</svg>
